#define noname_width 19
#define noname_height 7
static char noname_bits[] = {
 0x7f,0x1c,0x07,0x59,0x9c,0x03,0x59,0x9c,0x03,0x0c,0xdc,0x01,0x0c,0xfc,0x01,
 0x0c,0xb2,0x01,0x1f,0xd7,0x01};
