#define noname_width 40
#define noname_height 16
static char noname_bits[] = {
 0x00,0x00,0x00,0x00,0x60,0x00,0x30,0x00,0x00,0xd0,0x00,0x30,0x00,0x00,0x98,
 0x00,0x30,0x00,0x00,0x98,0x00,0xfe,0x01,0x00,0x98,0x00,0x30,0x00,0x00,0xd8,
 0xfe,0x30,0x00,0xfc,0xf1,0xff,0x30,0x00,0xfe,0x01,0x29,0x30,0x00,0x52,0x00,
 0x3c,0x00,0x00,0x78,0x00,0x34,0x00,0x00,0x68,0x00,0x36,0x00,0x18,0x6c,0x00,
 0x36,0x00,0x38,0x6c,0x00,0x00,0x00,0x20,0x00,0x00,0x00,0x00,0x10,0x00,0x00,
 0x00,0x00,0x18,0x00,0x00};
