#define noname_width 14
#define noname_height 17
static char noname_bits[] = {
 0x00,0x1c,0x00,0x36,0x00,0x36,0x00,0x30,0x00,0x18,0x00,0x2c,0x9e,0x3e,0xde,
 0x00,0x51,0x00,0x60,0x1a,0x20,0x0e,0x20,0x02,0x30,0x1e,0x30,0x18,0x10,0x1b,
 0x10,0x1e,0x10,0x00};
