#define noname_width 16
#define noname_height 9
static char noname_bits[] = {
 0x00,0xfc,0x00,0x00,0xfe,0x00,0xff,0x00,0x29,0x00,0x3c,0x00,0x34,0x00,0x36,
 0x00,0x36,0x00};
