#define noname_width 27
#define noname_height 11
static char noname_bits[] = {
 0x9e,0x80,0x27,0x00,0xde,0x80,0x37,0x00,0x51,0x40,0x14,0x00,0x60,0x04,0x98,
 0x06,0x20,0x06,0x88,0x03,0x20,0x04,0x88,0x00,0x30,0x04,0x8c,0x07,0x30,0x04,
 0x0c,0x06,0x10,0x04,0xc4,0x06,0x10,0x1e,0x84,0x07,0x10,0x00,0x04,0x00};
